<svg xmlns="http://www.w3.org/2000/svg" width="450" height="220" fill="none"><path fill="#382AE1" d="M0 20C0 8.954 8.954 0 20 0h410c11.046 0 20 8.954 20 20v200H0V20Z"/><mask id="a" width="450" height="220" x="0" y="0" maskUnits="userSpaceOnUse" style="mask-type:luminance"><path fill="#fff" d="M0 20C0 8.954 8.954 0 20 0h410c11.046 0 20 8.954 20 20v200H0V20Z"/></mask><g mask="url(#a)"><path fill="#1E1FCD" fill-rule="evenodd" d="M242.604 134.782v14.545l2.984 1.543v112.908L31.9 266.214v-72.237h7.013V124.52h2.548v-9.551h3.045v9.551h14.15s-.214 44.955 0 45.198c.212.244 7.317 0 7.317 0v36.439h5.786V76.399h7.379v-7.156h3.045V76.4h23.111v6.395h8.79v-13.55h3.045v13.55h4.314v23.771h10.353v42.63h12.18v38.692h6.384v-80.419h8.039V95.156h3.045v12.312h22.117V63.021h6.455v-3.654h25.751V46h3.045v13.367h1.685v3.624h6.303v77.983l12.759 6.699v-12.891h3.045ZM15.842 151.64h3.198l6.435 114.259H-8l6.445-114.259H.962v-4.151h14.88v4.151Z" clip-rule="evenodd"/><path fill="#1E1FCD" fill-rule="evenodd" d="M446.604 170.782v14.545l2.984 1.543v112.908L235.9 302.214v-72.237h7.013V160.52h2.548v-9.551h3.045v9.551h14.149s-.213 44.955 0 45.198c.213.244 7.318 0 7.318 0v36.439h5.786V112.399h7.379v-7.156h3.045v7.156h23.111v6.395h8.79v-13.551h3.045v13.551h4.314v23.771h10.353v42.63h12.18v38.692h6.384v-80.419h8.039v-12.312h3.045v12.312h22.117V99.022h6.455v-3.654h25.751V82h3.045v13.368h1.685v3.623h6.303v77.983l12.759 6.699v-12.891h3.045ZM219.842 187.64h3.198l6.435 114.259H196l6.445-114.259h2.517v-4.151h14.88v4.151Z" clip-rule="evenodd"/><path fill="#fff" d="M224.743 27.894c-.147-2.117-9.625 4.042-9.625 4.042s8.028-6.159 7.34-7.698c-.688-1.54-9.734 5.196-9.734 5.196s8.257-6.351 6.982-7.707c-1.276-1.357-10.093 5.782-10.093 5.782s8.992-7.9 5.56-8.092c-1.541-.082-13.643 8.138-26.754 18.008 3.67 4.582 7.34 9.008 11.303 13.288 4.203-4.344 7.515-7.799 7.964-8.376 1.349-1.732 14.745-.578 14.8-2.694.055-2.117-8.827-3.08-8.827-3.08s11.231-6.552 11.084-8.669Z"/><path fill="#231F20" fill-rule="evenodd" d="M199.365 50.997c.078.084.188.13.302.128.103-.007.2-.049.276-.119 4.963-5.132 7.477-7.753 7.991-8.413.513-.658 4.059-.851 6.919-1.007h.018c4.908-.257 7.945-.495 7.945-1.934.046-1.98-5.101-2.96-7.964-3.354 3.129-1.87 10.423-6.452 10.285-8.431a.833.833 0 0 0-.467-.715c-.835-.422-3.019.513-5.175 1.668 2.009-1.842 3.734-3.803 3.284-4.766a.77.77 0 0 0-.55-.43c-.743-.193-2.358.577-4.083 1.594 1.138-1.2 1.991-2.282 2.055-3.033a.916.916 0 0 0-.238-.742c-.789-.844-3.303.449-5.817 2.126 1.348-1.53 2.376-3.052 2.082-3.877a1.09 1.09 0 0 0-1.119-.687c-2.165 0-17.304 10.75-27.002 18.08a.456.456 0 0 0-.166.285.423.423 0 0 0 .092.312c4.212 5.278 7.808 9.503 11.332 13.315Zm.311-.898c-3.376-3.63-6.762-7.652-10.716-12.6 14.57-10.943 24.855-17.66 26.112-17.596.166.01.377.046.377.128.293.816-2.982 4.408-6.184 7.23a.403.403 0 0 0 0 .578.431.431 0 0 0 .587.064c4.477-3.61 9.037-6.387 9.551-5.819v.1c-.11 1.256-4.321 4.95-6.955 6.984a.421.421 0 1 0 .514.669c4.294-3.217 8.478-5.663 9.093-5.361.312.66-3.047 4.023-7.184 7.194a.421.421 0 0 0 .477.687c4.303-2.795 8.413-4.802 8.982-4.408.073 1.136-5.496 5.095-10.937 8.248a.421.421 0 0 0-.192.449c.034.176.179.31.357.33 4.083.449 8.451 1.585 8.451 2.657-.018.725-4.56.975-7.074 1.114l-.083.005c-4.23.229-6.854.412-7.551 1.328-.284.34-1.807 2.007-7.625 8.019Z" clip-rule="evenodd"/><path fill="#231F20" d="M153.058 68.876c-2.698 8.514 13.597 47.837 13.597 47.837l20.185-24.917c-.449-.77-10.652-18.493-10.652-18.493s15.056-13.92 23.452-22.59c-3.946-4.28-7.671-8.743-11.304-13.288-16.112 12.133-33.792 26.76-35.278 31.451Z"/><path fill="#231F20" fill-rule="evenodd" d="M166.554 117.117h.101a.406.406 0 0 0 .358-.147l20.185-24.908a.419.419 0 0 0 0-.459c-.413-.714-9.202-15.954-10.505-18.218 1.954-1.805 15.506-14.397 23.24-22.388a.41.41 0 0 0 0-.55c-3.514-3.794-7.101-8.01-11.294-13.27a.405.405 0 0 0-.56-.064c-16.176 12.134-33.911 26.824-35.443 31.653-2.716 8.56 12.936 46.499 13.606 48.103a.397.397 0 0 0 .312.248Zm-13.129-48.121c1.486-4.62 19.634-19.539 34.865-31.012 4 5.003 7.45 9.054 10.827 12.72-8.052 8.246-21.993 21.196-23.107 22.231l-.07.065a.421.421 0 0 0-.082.504l10.505 18.255-19.616 24.166c-2.065-5.077-15.763-39.232-13.322-46.93Z" clip-rule="evenodd"/><path fill="#fff" d="M201.044 109.529c1.651 11.418 9.257 21.077 17.515 29.902 4.945 5.242 11.01 10.576 18.249 10.237 3.459-.174 6.707-1.659 9.726-3.345a73.656 73.656 0 0 0 19.974-16.212 4.475 4.475 0 0 1-4.468-3.995 8.852 8.852 0 0 0 9.175-1.027c5.615-4.453 2.89-8.385-1.404-11.702a51.734 51.734 0 0 1-15.552-19.62c-5.358-11.97-16.001-27.96-31.764-24.313-15.157 3.5-19.268 17.082-21.36 30.553a31.926 31.926 0 0 0-.091 9.522Z"/><path fill="#231F20" fill-rule="evenodd" d="M218.256 139.715c4.854 5.16 10.763 10.383 17.873 10.383h.698c3.67-.174 7.074-1.814 9.909-3.39a73.303 73.303 0 0 0 20.084-16.358.402.402 0 0 0 .064-.449.41.41 0 0 0-.394-.239 4.119 4.119 0 0 1-3.9-2.886 9.279 9.279 0 0 0 8.854-1.384c2.221-1.778 3.331-3.666 3.331-5.499-.018-2.217-1.523-4.399-4.734-6.882a51.122 51.122 0 0 1-15.424-19.465c-11.313-25.229-25.057-26.21-32.25-24.55a23.56 23.56 0 0 0-15.837 11.739c-3.459 5.993-4.918 13.389-5.835 19.162a32.39 32.39 0 0 0-.064 9.696c1.715 11.858 9.872 21.875 17.625 30.122Zm4.303-69.904a19.137 19.137 0 0 1 4.276-.486c7.34 0 17.928 4.298 27.002 24.606a52.015 52.015 0 0 0 15.671 19.776c2.955 2.282 4.404 4.317 4.404 6.223.019 1.604-1 3.226-3.009 4.829a8.43 8.43 0 0 1-8.707.972.394.394 0 0 0-.413 0 .404.404 0 0 0-.184.376 4.926 4.926 0 0 0 4.019 4.316 72.534 72.534 0 0 1-19.268 15.533c-2.752 1.531-6.046 3.125-9.542 3.29-7.101.367-13.038-4.894-17.919-10.08-7.689-8.138-15.754-18.036-17.433-29.674a31.605 31.605 0 0 1 .065-9.439c2.128-13.691 6.147-26.796 21.038-30.242Z" clip-rule="evenodd"/><path fill="#fff" d="M305.851 145.37c-.642 2.538-11.184 21.343-11.184 21.343l13.762 7.432s12.451-20.839 13.515-22.223c1.065-1.384 10.093-13.398 11.322-17.614 1.23-4.215-7.45-7.331-11.01-6.992-3.56.339-15.763 15.515-16.405 18.054Z"/><path fill="#231F20" fill-rule="evenodd" d="M308.218 174.512a.366.366 0 0 0 .193.055.397.397 0 0 0 .303-.165c.028-.04.635-1.053 1.58-2.627 3.386-5.643 11.098-18.497 11.916-19.551l.078-.103c.941-1.243 10.059-13.292 11.309-17.657a3.6 3.6 0 0 0-.844-3.372c-2.267-2.74-7.909-4.381-10.616-4.151-3.725.284-16.066 15.634-16.745 18.328-.504 1.988-7.468 14.754-11.138 21.233a.39.39 0 0 0 0 .321c.028.11.101.203.202.257l13.762 7.432Zm.046-.926-13.019-7.047c1.523-2.722 10.404-18.677 11.01-21.069.56-2.162 12.652-17.448 16.01-17.741 2.459-.211 7.827 1.347 9.891 3.849.671.69.932 1.68.688 2.611-1.101 3.84-9.147 14.727-11.248 17.476-1 1.302-11.653 19.108-13.332 21.921Z" clip-rule="evenodd"/><path fill="#231F20" d="m301.897 153.498-12.295 14.975-26.516-17.751-11.295 21.004s37.554 28.161 42.876 25.467c5.321-2.694 21.442-35.924 21.442-35.924l-14.212-7.771Z"/><path fill="#231F20" fill-rule="evenodd" d="M251.543 172.047c3.671 2.749 34.527 25.714 42.27 25.714a2.2 2.2 0 0 0 1.019-.183c5.395-2.722 21.002-34.741 21.662-36.107a.41.41 0 0 0-.165-.531l-14.258-7.772a.397.397 0 0 0-.505.101l-12.065 14.663-26.195-17.55a.4.4 0 0 0-.578.147l-11.295 21.004a.413.413 0 0 0 .11.514Zm42.968 24.789c-4.175 2.098-31.6-17.302-42.206-25.229l10.918-20.308 26.159 17.513c.17.121.406.084.532-.083l12.084-14.718 13.615 7.433c-1.715 3.537-16.249 32.926-21.102 35.392Z" clip-rule="evenodd"/><path fill="#231F20" d="m313.155 116.878-.12 36.62h17.35v-36.62h-17.23Z"/><path fill="#231F20" fill-rule="evenodd" d="M313.035 153.938h17.35a.406.406 0 0 0 .404-.412v-36.657a.403.403 0 0 0-.404-.403h-17.23a.412.412 0 0 0-.413.403l-.11 36.657a.405.405 0 0 0 .114.291.408.408 0 0 0 .289.121Zm16.928-.806h-16.515l.092-35.851h16.423v35.851Z" clip-rule="evenodd"/><path fill="#fff" d="m314.916 120.113-.092 28.776h13.782v-28.776h-13.69Z"/><path fill="#231F20" fill-rule="evenodd" d="M314.843 149.301h13.762a.412.412 0 0 0 .432-.412v-28.776a.412.412 0 0 0-.413-.412h-13.689a.422.422 0 0 0-.423.412l-.082 28.767a.405.405 0 0 0 .413.421Zm13.34-.861h-12.937l.092-27.905h12.845v27.905Z" clip-rule="evenodd"/><path fill="#fff" d="M305.099 147.276s-2.588-12.335 1.293-14.269c3.882-1.933 17.222-4.197 15.158-1.173-2.065 3.024-9.295 4.894-9.295 4.894s1.487 4.316-.146 7.377"/><path fill="#231F20" d="M305.099 147.688a.404.404 0 0 1-.404-.33c-.11-.513-2.615-12.674 1.514-14.727 3.349-1.658 14.157-3.794 15.735-1.997a1.087 1.087 0 0 1-.055 1.438c-1.835 2.75-7.496 4.491-9.111 4.949.34 1.201 1.111 4.637-.302 7.331a.422.422 0 0 1-.744-.403c1.533-2.859.138-6.992.12-7.038a.412.412 0 0 1 0-.33.44.44 0 0 1 .266-.211c.073 0 7.101-1.832 9.056-4.719.137-.202.174-.348.11-.422-.991-1.136-11.01.367-14.736 2.2-2.945 1.466-1.761 10.456-1.064 13.801a.411.411 0 0 1-.321.495l-.064-.037Z"/><path fill="#75ECCA" d="m209.173 123.321-22.856-39.186-25.69 28.491 9.542 20.546s-14.68 34.705-14.68 102.73c0 0 78.154-.339 97.825-.339l-25.69-39.91s6.423-18.493 9.735-23.112l19.13 10.402 22.369-30.434-69.685-29.188Z"/><path fill="#231F20" d="M208.842 160.674c12.616 7.331 15.598-22.471 16.158-28.922.256-1.775.15-3.583-.312-5.316-.725-2.199-2.422-3.903-4.12-5.498-2.028-1.833-4.367-3.757-7.129-3.876a8.255 8.255 0 0 0-6.578 3.436 20.147 20.147 0 0 0-3.157 6.983c-2.972 10.365-2.862 21.307 2.872 30.728a6.592 6.592 0 0 0 1.991 2.263l.275.202Z"/><path fill="#231F20" fill-rule="evenodd" d="M208.641 161.022a7.935 7.935 0 0 0 3.972 1.21 5.72 5.72 0 0 0 2.652-.651c6.79-3.51 9.239-20.161 10.093-29.774a13.989 13.989 0 0 0-.331-5.499c-.761-2.3-2.504-4.05-4.229-5.636-2.12-1.998-4.515-3.867-7.34-3.986a8.601 8.601 0 0 0-6.919 3.592 20.558 20.558 0 0 0-3.22 7.121c-3.349 11.675-2.34 22.406 2.918 31.048a6.899 6.899 0 0 0 2.119 2.401l.285.174Zm-1.468-40.249a7.877 7.877 0 0 1 6.009-3.281h.22c2.57.101 4.817 1.879 6.873 3.767 1.651 1.521 3.312 3.18 4.009 5.297a13.12 13.12 0 0 1 .294 5.159c-1.413 16.083-4.955 26.695-9.671 29.133-1.771.916-3.697.742-5.881-.532l-.266-.155a6.172 6.172 0 0 1-1.835-2.136c-5.138-8.412-6.12-18.951-2.826-30.406a19.804 19.804 0 0 1 3.074-6.846Z" clip-rule="evenodd"/><path fill="#231F20" d="M246.488 104.791c1.165 4.224-.743 9.604-3.606 12.729-1.908 2.062-6.092 2.612-6.936-.743a16.999 16.999 0 0 1 2.174-13.04c1.835-3.015 5.349-4.738 7.606-.862.336.603.592 1.247.762 1.916Z"/><path fill="#231F20" fill-rule="evenodd" d="M238.038 119.463c.342.081.693.121 1.046.119a5.73 5.73 0 0 0 4.128-1.787c2.753-3.025 4.937-8.523 3.671-13.105a8.657 8.657 0 0 0-.845-2.007c-1.156-1.998-2.541-2.447-3.504-2.447-1.698-.009-3.515 1.237-4.799 3.299a17.479 17.479 0 0 0-2.184 13.334 3.394 3.394 0 0 0 2.487 2.594Zm.385-15.515c1.119-1.797 2.67-2.905 4.065-2.905l.036-.01c1.092.01 2.037.697 2.817 2.035a7.72 7.72 0 0 1 .762 1.833c1.174 4.252-.936 9.54-3.524 12.344a4.761 4.761 0 0 1-4.339 1.429 2.559 2.559 0 0 1-1.9-1.997 16.634 16.634 0 0 1 2.083-12.729Z" clip-rule="evenodd"/><path fill="#fff" d="M226.807 123.696c-1.835 7.029-3.67 23.039-15.368 14.663a14.828 14.828 0 0 1-3.101-3.317c-5.762-7.671-4.12-12.509-1.138-20.931 1.285-3.666 2.395-7.332 3.67-10.997 1.276-3.666 3.377-7.112 5.12-10.585-.064.12 5.734.916 11.533-1.714a145.595 145.595 0 0 0 10.597-5.36c1.569 2.345 3.267 4.123 4.102 6.91.77 2.702.991 5.53.651 8.32-.734 6.846-3.477 14.25-6.588 20.363-3.11 6.112-9.478 2.648-9.478 2.648Z"/><path fill="#231F20" fill-rule="evenodd" d="M211.191 138.716c2.276 1.632 4.322 2.456 6.157 2.456a5.507 5.507 0 0 0 1.908-.357c4.366-1.645 6.02-8.817 7.231-14.065l.008-.039c.193-.852.386-1.667.569-2.391a8.526 8.526 0 0 0 5.625.504 6.7 6.7 0 0 0 3.972-3.602c3.615-7.084 5.964-14.369 6.634-20.5a21.7 21.7 0 0 0-.67-8.495 17.239 17.239 0 0 0-2.972-5.334c-.395-.54-.79-1.09-1.184-1.677a.432.432 0 0 0-.56-.137c-.046.027-4.853 2.74-10.56 5.351a21.126 21.126 0 0 1-11.148 1.723.413.413 0 0 0-.56.184c-.486.971-1 1.942-1.514 2.914a60.606 60.606 0 0 0-3.624 7.725c-.679 1.897-1.312 3.831-1.927 5.709l-.098.303a262.104 262.104 0 0 1-1.672 5.004l-.005.012c-2.952 8.35-4.736 13.399 1.197 21.303a15.318 15.318 0 0 0 3.193 3.409Zm4.142-43.952c.31-.578.62-1.157.914-1.768a22.04 22.04 0 0 0 11.505-1.796 164.169 164.169 0 0 0 10.295-5.187c.321.468.661.935.991 1.384a16.573 16.573 0 0 1 2.881 5.086c.755 2.65.974 5.422.642 8.156-.651 6.03-2.982 13.215-6.551 20.216a5.84 5.84 0 0 1-3.459 3.171 8.004 8.004 0 0 1-5.505-.669.435.435 0 0 0-.606.266 66.775 66.775 0 0 0-.531 2.195l-.166.719-.102.429c-1.197 5.022-2.77 11.618-6.614 13.07-2 .752-4.459.073-7.34-1.998a14.57 14.57 0 0 1-3.01-3.235c-5.67-7.551-4.046-12.16-1.082-20.537a198.09 198.09 0 0 0 1.429-4.254l.351-1.07.319-.975c.515-1.572 1.044-3.19 1.598-4.707a60.051 60.051 0 0 1 3.579-7.624c.152-.294.307-.583.462-.872Z" clip-rule="evenodd"/><path fill="#231F20" d="M224.881 130.496s-5.68-1.292-8.258-6.011c-2.578-4.72-1.018-8.34-1.018-8.34s4.954 5.728 11.221 7.579l-1.945 6.772Z"/><path fill="#231F20" fill-rule="evenodd" d="M224.789 130.899h.092a.403.403 0 0 0 .394-.293l1.899-6.754a.402.402 0 0 0-.275-.504c-6.046-1.796-11.01-7.404-11.01-7.459a.423.423 0 0 0-.367-.129.404.404 0 0 0-.312.238c-.064.156-1.597 3.877 1.046 8.697 2.642 4.821 8.294 6.149 8.533 6.204Zm-7.827-6.625a10.224 10.224 0 0 1-1.202-7.332c1.368 1.439 5.478 5.416 10.552 7.038l-1.716 6.003c-1.275-.376-5.532-1.879-7.634-5.709Z" clip-rule="evenodd"/><path fill="#231F20" d="M228.358 112.15a7.654 7.654 0 0 1-3.276-1.027.406.406 0 1 1 .404-.706c.707.404 2.753 1.32 3.67.724.597-.384-.055-4.151-1.431-8.247a.406.406 0 0 1 .771-.257c.825 2.447 2.578 8.248 1.091 9.164a2.3 2.3 0 0 1-1.229.349Z"/><path fill="#231F20" d="M226.679 117.117a6.153 6.153 0 0 1-2.753-.605c-2.293-1.137-3.67-3.803-4.147-7.927a.413.413 0 0 1 .358-.449.405.405 0 0 1 .45.357c.431 3.831 1.669 6.287 3.67 7.331 3.055 1.512 6.954-.779 6.991-.797a.403.403 0 0 1 .56.138.413.413 0 0 1-.138.559 11.036 11.036 0 0 1-4.991 1.393ZM227.11 98.825a.404.404 0 0 1-.404-.376c-.064-.916-.33-1.475-.807-1.714-.918-.476-2.633.385-3.202.761a.407.407 0 0 1-.45-.678c.101-.064 2.45-1.585 4.01-.807a2.611 2.611 0 0 1 1.257 2.383.404.404 0 0 1-.376.43h-.028ZM237.285 103.37a.403.403 0 0 1-.403-.366s-.184-2.016-1.331-2.75c-.991-.65-2.147.834-2.156.853a.405.405 0 0 1-.569.073.4.4 0 0 1-.082-.568c.559-.733 1.954-1.888 3.257-1.036 1.477.972 1.679 3.281 1.688 3.373a.403.403 0 0 1-.367.44l-.037-.019ZM205.016 101.153a8.145 8.145 0 0 0 .734 4.261c1.303 2.41 4.515 3.391 7.139 2.612 6.853-2.026 10.147-15.048 4.963-20.161-4.817-4.748-10.285 2.749-11.413 7.175-.523 2.08-1.349 4.005-1.423 6.113Z"/><path fill="#231F20" fill-rule="evenodd" d="M205.393 105.606a6.424 6.424 0 0 0 5.661 3.089 7.118 7.118 0 0 0 1.917-.303c3.303-.916 6.083-4.444 7.267-9.164 1.184-4.72.367-9.182-2.138-11.648a4.83 4.83 0 0 0-4.835-1.448c-3.496.963-6.459 5.737-7.258 8.816-.146.56-.312 1.118-.477 1.677a19.44 19.44 0 0 0-.917 4.509 8.33 8.33 0 0 0 .78 4.472Zm.715-.375a7.655 7.655 0 0 1-.688-4.06h.009c.134-1.47.442-2.919.918-4.317.165-.568.33-1.136.477-1.704.734-2.813 3.532-7.331 6.689-8.248a4.03 4.03 0 0 1 4.055 1.256c2.294 2.263 3.019 6.47 1.918 10.878-1.101 4.408-3.67 7.688-6.707 8.605a5.83 5.83 0 0 1-6.671-2.41Z" clip-rule="evenodd"/><path fill="#231F20" d="M243.121 109.208a.92.92 0 0 1-.789-1.393c.101-.165 10.276-16.88 12.019-27.3.633-3.776-1.046-7.606-4.725-10.805-5.028-4.362-12.533-6.314-17.846-4.637-9.45 2.988-14.478 24.744-14.533 24.927a.918.918 0 0 1-1.789-.403c.211-.917 5.321-22.975 15.772-26.274 5.973-1.879 14.029.174 19.598 5.003 4.184 3.666 6.083 8.065 5.34 12.491-1.835 10.777-11.845 27.254-12.267 27.951a.917.917 0 0 1-.78.44Z"/><path fill="#231F20" d="M292.868 239a31.327 31.327 0 0 1-9.679-1.567 31.76 31.76 0 0 1-10.157-5.902c-5.093-4.115-9.579-9.027-13.919-13.746-2.753-3.015-5.597-6.131-8.57-9.008-9.312-9.018-18.561-13.82-27.525-14.26-12.056-.605-22.745 6.278-32.489 13.801-.918.733-1.909 1.494-2.881 2.264-7.882 6.241-16.818 13.306-27.828 11.648-7.506-1.128-13.332-6.296-16.892-10.429-8.762-10.182-12.845-24.744-10.817-38.866 2.147-15.212 10.634-25.934 25.231-31.873 12.084-4.912 23.489-11.785 34.526-18.429l.092-.045c6.836-4.124 14.093-9.403 16.047-17.321a.474.474 0 0 1 .918.22c-2.037 8.248-9.469 13.664-16.469 17.879l-.083.055c-11.065 6.663-22.507 13.554-34.654 18.494-14.277 5.801-22.571 16.275-24.672 31.158-1.964 13.856 2 28.106 10.569 38.086 3.459 4.023 9.102 9.045 16.332 10.127 10.616 1.603 19.011-5.041 27.122-11.456l2.89-2.272c9.891-7.634 20.745-14.617 33.095-13.994 9.175.458 18.625 5.343 28.103 14.516 2.991 2.905 5.845 6.03 8.606 9.054 4.313 4.729 8.772 9.613 13.818 13.682a30.94 30.94 0 0 0 9.854 5.746c12.396 3.996 24.773.064 36.875-11.693 17.956-17.485 28.076-43.988 27.755-72.8-.147-13.453-2.661-23.965-7.689-32.148-2.028-3.309-4.587-6.993-8.753-8.835-2.129-.916-7.12-1.264-9.047 1.439-.734 1.036-.807 2.255-.917 3.803 0 .669-.092 1.421-.193 2.236a.462.462 0 1 1-.917-.119c.11-.788.146-1.493.192-2.172.101-1.631.193-3.033 1.083-4.279 2.239-3.144 7.725-2.814 10.166-1.741 4.441 1.942 7.056 5.764 9.175 9.164 5.12 8.33 7.671 18.997 7.827 32.624.321 29.032-9.891 55.81-28.03 73.46-9.194 8.99-18.617 13.49-28.095 13.499ZM204.172 37.022a.475.475 0 0 1-.348-.156.467.467 0 0 1 0-.65c2.018-1.751 4.018-2.52 5.954-2.301a6.425 6.425 0 0 1 4.166 2.373c.145.207.1.49-.101.642a.46.46 0 0 1-.642-.1 5.582 5.582 0 0 0-3.524-2.026c-1.67-.193-3.431.513-5.248 2.09a.447.447 0 0 1-.257.128Z"/><path fill="#231F20" d="M231.505 185.39a.482.482 0 0 1-.193 0 .43.43 0 0 1-.183-.569l11.579-23.185a.416.416 0 0 1 .743.376l-11.57 23.148a.414.414 0 0 1-.376.23ZM209.934 189.908c-13.258 0-28.837-4.289-29.7-4.528a.421.421 0 1 1 .221-.806c.284.073 28.103 7.744 40.967 2.841a.423.423 0 0 1 .535.564.404.404 0 0 1-.233.215 34.087 34.087 0 0 1-11.79 1.714ZM320.403 114.312h2v2.969h-2z"/><path fill="#231F20" fill-rule="evenodd" d="M320.403 117.685h2c.107 0 .21-.043.286-.118a.408.408 0 0 0 .118-.286v-2.969a.404.404 0 0 0-.404-.403h-2a.406.406 0 0 0-.413.403v2.969a.413.413 0 0 0 .413.404Zm1.596-.816h-1.192v-2.153h1.192v2.153Z" clip-rule="evenodd"/><path fill="#fff" d="m213.026 105.661-.66-.641a13.341 13.341 0 0 0 2.358-15.763l.789-.467a14.284 14.284 0 0 1-2.487 16.871ZM243.304 117.685l-.853-.339c2.679-6.901 2-11.996 2-12.042l.918-.128c.018.192.706 5.361-2.065 12.509ZM169.236 79.78l6.647-6.787.655.641-6.647 6.787-.655-.641ZM289.407 168.9l.403-.823 7.062 3.454-.403.823-7.062-3.454Z"/><path fill="#CD7DF3" d="M53.797 105.082c-.386-.091-.799-.155-1.175-.284a3.502 3.502 0 0 1-2.514-2.392 3.661 3.661 0 0 1 .55-2.978 6.671 6.671 0 0 1 4.423-2.896c1.184-.266 1.716-.201 3.597.257V74.722l21.726-4.344v26.988a4.58 4.58 0 0 1-1.605 3.666 6.776 6.776 0 0 1-6.634 1.631 3.365 3.365 0 0 1-2.514-2.383 3.552 3.552 0 0 1 .541-2.969 6.616 6.616 0 0 1 4.441-2.896 6.302 6.302 0 0 1 3.56.257V79.496l-1.541.303a5788.393 5788.393 0 0 1-15.479 3.088c-.284.055-.33.165-.33.421v16.093a4.92 4.92 0 0 1-2.12 4.206 7.265 7.265 0 0 1-3.468 1.411c-.065.017-.13.039-.192.064h-1.267ZM397.605 168.33v-.523a2.786 2.786 0 0 0-.523-1.328 5.817 5.817 0 0 0-1.77-1.677 6.532 6.532 0 0 0-2.303-.917 4.152 4.152 0 0 0-1.579 0h-.137a1.118 1.118 0 0 1 0-.183c.092-.358.183-.706.284-1.045l1.835-6.415c.67-2.328 1.349-4.655 2.019-6.983v-.137l-.642-.055a11.424 11.424 0 0 0-5.129.916 7.405 7.405 0 0 0-3.588 3.143c-.229.404-.404.834-.596 1.265-.129.275-.23.568-.349.852a.474.474 0 0 0 0 .119l.229-.137a17.482 17.482 0 0 1 2.285-1.265 8.155 8.155 0 0 1 3.9-.696 7.096 7.096 0 0 1 1.688.376.784.784 0 0 0 0 .137 2907.357 2907.357 0 0 0-3.312 11.574.5.5 0 0 0 0 .211c.078.682.366 1.322.825 1.833a6.064 6.064 0 0 0 2.147 1.659l.716.311.661.193h.183c.545.11 1.107.11 1.652 0a1.927 1.927 0 0 0 1.183-.642 4.97 4.97 0 0 0 .275-.43l.046-.156ZM71.136 177.346c0-.22 0-.449.1-.669.161-.605.477-1.158.918-1.604a7.683 7.683 0 0 1 2.624-1.787 8.425 8.425 0 0 1 3.138-.706 5.51 5.51 0 0 1 2.028.321l.174.064a2.1 2.1 0 0 0 0-.238c0-.467-.092-.916-.147-1.393-.348-2.89-.7-5.77-1.055-8.642-.385-3.134-.78-6.259-1.165-9.384v-.183c.284 0 .569 0 .835.064 2.28.227 4.479.977 6.422 2.19a9.642 9.642 0 0 1 3.955 4.766c.2.57.369 1.152.505 1.741.11.385.183.779.275 1.173a.293.293 0 0 1 0 .156l-.266-.229a22.827 22.827 0 0 0-2.68-2.09 10.44 10.44 0 0 0-4.853-1.677 9.253 9.253 0 0 0-2.248.128c.005.058.005.117 0 .175.612 5.18 1.239 10.373 1.88 15.579a.646.646 0 0 1 0 .265 4.316 4.316 0 0 1-1.44 2.227 7.702 7.702 0 0 1-3.1 1.686c-.322.101-.652.175-.973.257l-.918.11h-.147a5.403 5.403 0 0 1-2.128-.293 2.439 2.439 0 0 1-1.377-1.054 4.636 4.636 0 0 1-.275-.614l-.082-.339ZM290.831 96.066c.12-.238.221-.485.358-.705a4.395 4.395 0 0 1 1.689-1.457 9.271 9.271 0 0 1 3.67-.99 10.1 10.1 0 0 1 3.816.43 6.362 6.362 0 0 1 2.166 1.165l.174.137c.045-.085.081-.174.11-.266.138-.54.266-1.081.386-1.631l2.202-10.172a3142.4 3142.4 0 0 0 2.358-11.052l.045-.22c.322.137.624.256.918.394a17.82 17.82 0 0 1 6.368 4.985 11.487 11.487 0 0 1 2.605 6.938c0 .719-.037 1.438-.11 2.153 0 .486-.101.916-.156 1.439a.388.388 0 0 1-.055.165l-.22-.358a26.584 26.584 0 0 0-2.202-3.4 12.409 12.409 0 0 0-4.826-3.803 10.548 10.548 0 0 0-2.588-.724h-.064c-.01.072-.025.142-.046.211l-3.963 18.273a.919.919 0 0 1-.12.303 5.193 5.193 0 0 1-2.495 1.952 9.397 9.397 0 0 1-4.166.687c-.404 0-.798-.055-1.202-.091l-1.055-.22-.174-.074a6.426 6.426 0 0 1-2.285-1.164 3.038 3.038 0 0 1-1.147-1.732 7.596 7.596 0 0 1-.064-.797l.073-.376Z"/><path fill="#698DFF" d="M38.092 50.8c-4.725 0-4.734 7.331 0 7.331 4.735 0 4.735-7.331 0-7.331ZM395.092 58.8c-4.725 0-4.734 7.331 0 7.331 4.735 0 4.735-7.331 0-7.331ZM334.713 41.917a1.94 1.94 0 0 0-.468-.806l-.376-.284a1.84 1.84 0 0 0-.918-.257h-.514a1.34 1.34 0 0 0-.706.165 1.323 1.323 0 0 0-.597.376 1.427 1.427 0 0 0-.376.587c-.115.216-.169.46-.156.705l.064.495c.086.304.247.58.468.806l.377.285c.278.161.595.246.917.247h.514c.245.014.49-.04.706-.156.227-.075.431-.204.597-.376.324-.358.512-.818.532-1.3-.018-.157-.046-.322-.064-.487ZM115.561 33.349c-2.954 0-2.963 4.582 0 4.582 2.964 0 2.955-4.582 0-4.582ZM379.895 77.84c-2.955 0-2.955 4.582 0 4.582 2.954 0 2.954-4.582 0-4.582Z"/></g></svg>